{
  "accessors": [
    {
      "name": "Part1_1_0_positions",
      "componentType": 5126,
      "count": 24,
      "min": [
        -2.98022992950564e-8,
        0.5,
        7.75
      ],
      "max": [
        0.25,
        1,
        12.25
      ],
      "type": "VEC3",
      "bufferView": 0,
      "byteOffset": 0
    },
    {
      "name": "Part1_1_0_normals",
      "componentType": 5126,
      "count": 24,
      "min": [
        -1,
        -1,
        -1
      ],
      "max": [
        1,
        1,
        1
      ],
      "type": "VEC3",
      "bufferView": 1,
      "byteOffset": 0
    },
    {
      "name": "Part1_1_0_texcoords",
      "componentType": 5126,
      "count": 24,
      "min": [
        -0.08446069806814194,
        0.2327820062637329
      ],
      "max": [
        0.4780389964580536,
        0.2952820062637329
      ],
      "type": "VEC2",
      "bufferView": 2,
      "byteOffset": 0
    },
    {
      "name": "Part1_1_0_indices",
      "componentType": 5123,
      "count": 36,
      "min": [
        0
      ],
      "max": [
        23
      ],
      "type": "SCALAR",
      "bufferView": 3,
      "byteOffset": 0
    },
    {
      "name": "Part2_1_0_positions",
      "componentType": 5126,
      "count": 24,
      "min": [
        -4,
        0.5,
        7.5
      ],
      "max": [
        0,
        0.75,
        7.75
      ],
      "type": "VEC3",
      "bufferView": 0,
      "byteOffset": 288
    },
    {
      "name": "Part2_1_0_normals",
      "componentType": 5126,
      "count": 24,
      "min": [
        -1,
        -1,
        -1
      ],
      "max": [
        1,
        1,
        1
      ],
      "type": "VEC3",
      "bufferView": 1,
      "byteOffset": 288
    },
    {
      "name": "Part2_1_0_texcoords",
      "componentType": 5126,
      "count": 24,
      "min": [
        -0.1261810064315796,
        -0.14327000081539154
      ],
      "max": [
        0.3738189935684204,
        -0.11202000081539154
      ],
      "type": "VEC2",
      "bufferView": 2,
      "byteOffset": 192
    },
    {
      "name": "Part2_1_0_indices",
      "componentType": 5123,
      "count": 36,
      "min": [
        0
      ],
      "max": [
        23
      ],
      "type": "SCALAR",
      "bufferView": 3,
      "byteOffset": 72
    },
    {
      "name": "Part3_1_0_positions",
      "componentType": 5126,
      "count": 24,
      "min": [
        -4,
        0.5,
        12.25
      ],
      "max": [
        0,
        0.75,
        12.5
      ],
      "type": "VEC3",
      "bufferView": 0,
      "byteOffset": 576
    },
    {
      "name": "Part3_1_0_normals",
      "componentType": 5126,
      "count": 24,
      "min": [
        -1,
        -1,
        -1
      ],
      "max": [
        1,
        1,
        1
      ],
      "type": "VEC3",
      "bufferView": 1,
      "byteOffset": 576
    },
    {
      "name": "Part3_1_0_texcoords",
      "componentType": 5126,
      "count": 24,
      "min": [
        0.11649899929761887,
        0.18306100368499756
      ],
      "max": [
        0.6164990067481995,
        0.21431100368499756
      ],
      "type": "VEC2",
      "bufferView": 2,
      "byteOffset": 384
    },
    {
      "name": "Part3_1_0_indices",
      "componentType": 5123,
      "count": 36,
      "min": [
        0
      ],
      "max": [
        23
      ],
      "type": "SCALAR",
      "bufferView": 3,
      "byteOffset": 144
    },
    {
      "name": "Part4_1_0_positions",
      "componentType": 5126,
      "count": 24,
      "min": [
        0.25,
        0.5,
        8
      ],
      "max": [
        0.5,
        0.75,
        12
      ],
      "type": "VEC3",
      "bufferView": 0,
      "byteOffset": 864
    },
    {
      "name": "Part4_1_0_normals",
      "componentType": 5126,
      "count": 24,
      "min": [
        -1,
        -1,
        -1
      ],
      "max": [
        1,
        1,
        1
      ],
      "type": "VEC3",
      "bufferView": 1,
      "byteOffset": 864
    },
    {
      "name": "Part4_1_0_texcoords",
      "componentType": 5126,
      "count": 24,
      "min": [
        -0.24217000603675842,
        0.18306100368499756
      ],
      "max": [
        0.2578299939632416,
        0.21431100368499756
      ],
      "type": "VEC2",
      "bufferView": 2,
      "byteOffset": 576
    },
    {
      "name": "Part4_1_0_indices",
      "componentType": 5123,
      "count": 36,
      "min": [
        0
      ],
      "max": [
        23
      ],
      "type": "SCALAR",
      "bufferView": 3,
      "byteOffset": 216
    },
    {
      "name": "Part5_1_0_positions",
      "componentType": 5126,
      "count": 24,
      "min": [
        -4,
        0.5,
        12
      ],
      "max": [
        0,
        1,
        12.25
      ],
      "type": "VEC3",
      "bufferView": 0,
      "byteOffset": 1152
    },
    {
      "name": "Part5_1_0_normals",
      "componentType": 5126,
      "count": 24,
      "min": [
        -1,
        -1,
        -1
      ],
      "max": [
        1,
        1,
        1
      ],
      "type": "VEC3",
      "bufferView": 1,
      "byteOffset": 1152
    },
    {
      "name": "Part5_1_0_texcoords",
      "componentType": 5126,
      "count": 24,
      "min": [
        -0.255623996257782,
        0.24695999920368195
      ],
      "max": [
        0.24437600374221802,
        0.30946001410484314
      ],
      "type": "VEC2",
      "bufferView": 2,
      "byteOffset": 768
    },
    {
      "name": "Part5_1_0_indices",
      "componentType": 5123,
      "count": 36,
      "min": [
        0
      ],
      "max": [
        23
      ],
      "type": "SCALAR",
      "bufferView": 3,
      "byteOffset": 288
    },
    {
      "name": "Part6_1_0_positions",
      "componentType": 5126,
      "count": 24,
      "min": [
        -4.25,
        0.5,
        7.75
      ],
      "max": [
        -4,
        1,
        12.25
      ],
      "type": "VEC3",
      "bufferView": 0,
      "byteOffset": 1440
    },
    {
      "name": "Part6_1_0_normals",
      "componentType": 5126,
      "count": 24,
      "min": [
        -1,
        -1,
        -1
      ],
      "max": [
        1,
        1,
        1
      ],
      "type": "VEC3",
      "bufferView": 1,
      "byteOffset": 1440
    },
    {
      "name": "Part6_1_0_texcoords",
      "componentType": 5126,
      "count": 24,
      "min": [
        -0.19599400460720062,
        -0.19598999619483948
      ],
      "max": [
        0.36650601029396057,
        -0.13348999619483948
      ],
      "type": "VEC2",
      "bufferView": 2,
      "byteOffset": 960
    },
    {
      "name": "Part6_1_0_indices",
      "componentType": 5123,
      "count": 36,
      "min": [
        0
      ],
      "max": [
        23
      ],
      "type": "SCALAR",
      "bufferView": 3,
      "byteOffset": 360
    },
    {
      "name": "Part7_1_0_positions",
      "componentType": 5126,
      "count": 24,
      "min": [
        -4,
        0.5,
        7.75
      ],
      "max": [
        0,
        1,
        8
      ],
      "type": "VEC3",
      "bufferView": 0,
      "byteOffset": 1728
    },
    {
      "name": "Part7_1_0_normals",
      "componentType": 5126,
      "count": 24,
      "min": [
        -1,
        -1,
        -1
      ],
      "max": [
        1,
        1,
        1
      ],
      "type": "VEC3",
      "bufferView": 1,
      "byteOffset": 1728
    },
    {
      "name": "Part7_1_0_texcoords",
      "componentType": 5126,
      "count": 24,
      "min": [
        0.030294299125671387,
        0.26590800285339355
      ],
      "max": [
        0.5302940011024475,
        0.32840800285339355
      ],
      "type": "VEC2",
      "bufferView": 2,
      "byteOffset": 1152
    },
    {
      "name": "Part7_1_0_indices",
      "componentType": 5123,
      "count": 36,
      "min": [
        0
      ],
      "max": [
        23
      ],
      "type": "SCALAR",
      "bufferView": 3,
      "byteOffset": 432
    },
    {
      "name": "Part8_1_0_positions",
      "componentType": 5126,
      "count": 24,
      "min": [
        -4.5,
        0.5,
        8
      ],
      "max": [
        -4.25,
        0.75,
        12
      ],
      "type": "VEC3",
      "bufferView": 0,
      "byteOffset": 2016
    },
    {
      "name": "Part8_1_0_normals",
      "componentType": 5126,
      "count": 24,
      "min": [
        -1,
        -1,
        -1
      ],
      "max": [
        1,
        1,
        1
      ],
      "type": "VEC3",
      "bufferView": 1,
      "byteOffset": 2016
    },
    {
      "name": "Part8_1_0_texcoords",
      "componentType": 5126,
      "count": 24,
      "min": [
        0.13194699585437775,
        0.11239899694919586
      ],
      "max": [
        0.6319469809532166,
        0.14364899694919586
      ],
      "type": "VEC2",
      "bufferView": 2,
      "byteOffset": 1344
    },
    {
      "name": "Part8_1_0_indices",
      "componentType": 5123,
      "count": 36,
      "min": [
        0
      ],
      "max": [
        23
      ],
      "type": "SCALAR",
      "bufferView": 3,
      "byteOffset": 504
    },
    {
      "name": "Collider1_1_0_positions",
      "componentType": 5126,
      "count": 24,
      "min": [
        -4,
        0.625,
        8
      ],
      "max": [
        0,
        0.875,
        12
      ],
      "type": "VEC3",
      "bufferView": 0,
      "byteOffset": 2304
    },
    {
      "name": "Collider1_1_0_normals",
      "componentType": 5126,
      "count": 24,
      "min": [
        -1,
        -1,
        -1
      ],
      "max": [
        1,
        1,
        1
      ],
      "type": "VEC3",
      "bufferView": 1,
      "byteOffset": 2304
    },
    {
      "name": "Collider1_1_0_texcoords",
      "componentType": 5126,
      "count": 24,
      "min": [
        -0.18403500318527222,
        0.15360499918460846
      ],
      "max": [
        0.3159649968147278,
        0.6536049842834473
      ],
      "type": "VEC2",
      "bufferView": 2,
      "byteOffset": 1536
    },
    {
      "name": "Collider1_1_0_indices",
      "componentType": 5123,
      "count": 36,
      "min": [
        0
      ],
      "max": [
        23
      ],
      "type": "SCALAR",
      "bufferView": 3,
      "byteOffset": 576
    },
    {
      "name": "Part9_1_0_positions",
      "componentType": 5126,
      "count": 24,
      "min": [
        -4,
        0.5,
        7.75
      ],
      "max": [
        5.3661999288578954e-8,
        0.75,
        12.25
      ],
      "type": "VEC3",
      "bufferView": 0,
      "byteOffset": 2592
    },
    {
      "name": "Part9_1_0_normals",
      "componentType": 5126,
      "count": 24,
      "min": [
        -1,
        -1,
        -1
      ],
      "max": [
        1,
        1,
        1
      ],
      "type": "VEC3",
      "bufferView": 1,
      "byteOffset": 2592
    },
    {
      "name": "Part9_1_0_texcoords",
      "componentType": 5126,
      "count": 24,
      "min": [
        3,
        1.5
      ],
      "max": [
        3.5625,
        2
      ],
      "type": "VEC2",
      "bufferView": 2,
      "byteOffset": 1728
    },
    {
      "name": "Part9_1_0_indices",
      "componentType": 5123,
      "count": 36,
      "min": [
        0
      ],
      "max": [
        23
      ],
      "type": "SCALAR",
      "bufferView": 3,
      "byteOffset": 648
    }
  ],
  "asset": {
    "generator": "obj2gltf",
    "version": "2.0"
  },
  "buffers": [
    {
      "name": "basic-furnace",
      "byteLength": 1309596,
      "uri": "data:application/octet-stream;base64,"
    }
  ],
  "bufferViews": [
    {
      "name": "bufferView_0",
      "buffer": 0,
      "byteLength": 2880,
      "byteOffset": 0,
      "byteStride": 12,
      "target": 34962
    },
    {
      "name": "bufferView_1",
      "buffer": 0,
      "byteLength": 2880,
      "byteOffset": 2880,
      "byteStride": 12,
      "target": 34962
    },
    {
      "name": "bufferView_2",
      "buffer": 0,
      "byteLength": 1920,
      "byteOffset": 5760,
      "byteStride": 8,
      "target": 34962
    },
    {
      "name": "bufferView_3",
      "buffer": 0,
      "byteLength": 720,
      "byteOffset": 7680,
      "target": 34963
    },
    {
      "buffer": 0,
      "byteOffset": 8400,
      "byteLength": 7186
    },
    {
      "buffer": 0,
      "byteOffset": 15586,
      "byteLength": 1294010
    }
  ],
  "images": [
    {
      "name": "Part1_spec",
      "mimeType": "image/png",
      "bufferView": 4
    },
    {
      "name": "Part1_nmap",
      "mimeType": "image/png",
      "bufferView": 5
    }
  ],
  "materials": [
    {
      "name": "Part1Mtl",
      "pbrMetallicRoughness": {
        "metallicRoughnessTexture": {
          "index": 0
        },
        "baseColorFactor": [
          0.0151752,
          0.0151752,
          0.0151752,
          1
        ],
        "metallicFactor": 0,
        "roughnessFactor": 1
      },
      "normalTexture": {
        "index": 1
      },
      "emissiveFactor": [
        0,
        0,
        0
      ],
      "alphaMode": "OPAQUE",
      "doubleSided": false
    },
    {
      "name": "Collider1Mtl",
      "pbrMetallicRoughness": {
        "baseColorFactor": [
          0.373615,
          0.0103978,
          0.0050282,
          0.45098
        ],
        "metallicFactor": 0,
        "roughnessFactor": 0.9921354169682
      },
      "emissiveFactor": [
        0,
        0,
        0
      ],
      "alphaMode": "BLEND",
      "doubleSided": true
    },
    {
      "name": "Part9Mtl",
      "pbrMetallicRoughness": {
        "baseColorFactor": [
          0.0151752,
          0.0151752,
          0.0151752,
          1
        ],
        "metallicFactor": 0,
        "roughnessFactor": 0.99398942
      },
      "emissiveFactor": [
        0,
        0,
        0
      ],
      "alphaMode": "OPAQUE",
      "doubleSided": false
    }
  ],
  "meshes": [
    {
      "name": "Part1_1",
      "primitives": [
        {
          "attributes": {
            "POSITION": 0,
            "NORMAL": 1,
            "TEXCOORD_0": 2
          },
          "indices": 3,
          "material": 0,
          "mode": 4
        }
      ]
    },
    {
      "name": "Part2_1",
      "primitives": [
        {
          "attributes": {
            "POSITION": 4,
            "NORMAL": 5,
            "TEXCOORD_0": 6
          },
          "indices": 7,
          "material": 0,
          "mode": 4
        }
      ]
    },
    {
      "name": "Part3_1",
      "primitives": [
        {
          "attributes": {
            "POSITION": 8,
            "NORMAL": 9,
            "TEXCOORD_0": 10
          },
          "indices": 11,
          "material": 0,
          "mode": 4
        }
      ]
    },
    {
      "name": "Part4_1",
      "primitives": [
        {
          "attributes": {
            "POSITION": 12,
            "NORMAL": 13,
            "TEXCOORD_0": 14
          },
          "indices": 15,
          "material": 0,
          "mode": 4
        }
      ]
    },
    {
      "name": "Part5_1",
      "primitives": [
        {
          "attributes": {
            "POSITION": 16,
            "NORMAL": 17,
            "TEXCOORD_0": 18
          },
          "indices": 19,
          "material": 0,
          "mode": 4
        }
      ]
    },
    {
      "name": "Part6_1",
      "primitives": [
        {
          "attributes": {
            "POSITION": 20,
            "NORMAL": 21,
            "TEXCOORD_0": 22
          },
          "indices": 23,
          "material": 0,
          "mode": 4
        }
      ]
    },
    {
      "name": "Part7_1",
      "primitives": [
        {
          "attributes": {
            "POSITION": 24,
            "NORMAL": 25,
            "TEXCOORD_0": 26
          },
          "indices": 27,
          "material": 0,
          "mode": 4
        }
      ]
    },
    {
      "name": "Part8_1",
      "primitives": [
        {
          "attributes": {
            "POSITION": 28,
            "NORMAL": 29,
            "TEXCOORD_0": 30
          },
          "indices": 31,
          "material": 0,
          "mode": 4
        }
      ]
    },
    {
      "name": "Collider1_1",
      "primitives": [
        {
          "attributes": {
            "POSITION": 32,
            "NORMAL": 33,
            "TEXCOORD_0": 34
          },
          "indices": 35,
          "material": 1,
          "mode": 4
        }
      ]
    },
    {
      "name": "Part9_1",
      "primitives": [
        {
          "attributes": {
            "POSITION": 36,
            "NORMAL": 37,
            "TEXCOORD_0": 38
          },
          "indices": 39,
          "material": 2,
          "mode": 4
        }
      ]
    }
  ],
  "nodes": [
    {
      "name": "Part1",
      "mesh": 0
    },
    {
      "name": "Part2",
      "mesh": 1
    },
    {
      "name": "Part3",
      "mesh": 2
    },
    {
      "name": "Part4",
      "mesh": 3
    },
    {
      "name": "Part5",
      "mesh": 4
    },
    {
      "name": "Part6",
      "mesh": 5
    },
    {
      "name": "Part7",
      "mesh": 6
    },
    {
      "name": "Part8",
      "mesh": 7
    },
    {
      "name": "Collider1",
      "mesh": 8
    },
    {
      "name": "Part9",
      "mesh": 9
    }
  ],
  "samplers": [
    {
      "wrapS": 10497,
      "wrapT": 10497
    }
  ],
  "scene": 0,
  "scenes": [
    {
      "nodes": [
        0,
        1,
        2,
        3,
        4,
        5,
        6,
        7,
        8,
        9
      ]
    }
  ],
  "textures": [
    {
      "name": "Part1_spec",
      "sampler": 0,
      "source": 0
    },
    {
      "name": "Part1_nmap",
      "sampler": 0,
      "source": 1
    }
  ]
}
